<svg height="512pt" preserveAspectRatio="xMidYMid meet" viewBox="0 0 512 512" width="512pt" xmlns="http://www.w3.org/2000/svg"><path d="m1338 3579c-662-529-1211-970-1220-981-24-27-23-53 2-78 19-19 33-20 240-20h220v-940c0-927 0-940 20-960s33-20 880-20 860 0 880 20 20 33 20 800v780h420 420v-780c0-767 0-780 20-800s33-20 640-20 620 0 640 20 20 33 20 960v940h220c207 0 221 1 240 20 30 30 25 59-19 99-22 20-238 200-480 401l-440 365v358c-1 343-2 358-21 377s-33 20-280 20c-321 0-300 11-300-150v-110l-440 330c-242 182-449 330-460 330s-540-416-1222-961z" transform="matrix(.1 0 0 -.1 0 512)"/></svg>